<svg width="90" height="102" viewBox="0 0 90 102" fill="none" xmlns="http://www.w3.org/2000/svg">
<path d="M10.1271 0.341705C4.60423 0.341705 0.127073 4.81886 0.127073 10.3417V15.7563C0.127073 21.2791 4.60423 25.7563 10.1271 25.7563H79.078C84.6009 25.7563 89.078 21.2791 89.078 15.7563V10.3417C89.078 4.81886 84.6009 0.341705 79.078 0.341705H10.1271ZM0 38.4636C0.0701804 38.4636 0.127073 38.5205 0.127073 38.5906V100.856C0.127073 101.492 0.635364 102 1.27073 102H87.8073C88.4427 102 88.951 101.492 88.951 100.856V48.4636C88.951 42.9407 84.4738 38.4636 78.951 38.4636H0ZM12.8344 57.5245C12.8344 54.0155 15.679 51.1708 19.188 51.1708C22.697 51.1708 25.5416 54.0155 25.5416 57.5245C25.5416 61.0335 22.697 63.8781 19.188 63.8781C15.679 63.8781 12.8344 61.0335 12.8344 57.5245ZM38.2489 57.5245C38.2489 54.0155 41.0935 51.1708 44.6026 51.1708C48.1116 51.1708 50.9562 54.0155 50.9562 57.5245C50.9562 61.0335 48.1116 63.8781 44.6026 63.8781C41.0935 63.8781 38.2489 61.0335 38.2489 57.5245ZM63.6635 57.5245C63.6635 54.0155 66.5081 51.1708 70.0171 51.1708C73.5261 51.1708 76.3708 54.0155 76.3708 57.5245C76.3708 61.0335 73.5261 63.8781 70.0171 63.8781C66.5081 63.8781 63.6635 61.0335 63.6635 57.5245ZM12.8344 82.9391C12.8344 79.43 15.679 76.5854 19.188 76.5854C22.697 76.5854 25.5416 79.43 25.5416 82.9391C25.5416 86.4481 22.697 89.2927 19.188 89.2927C15.679 89.2927 12.8344 86.4481 12.8344 82.9391ZM38.2489 82.9391C38.2489 79.43 41.0935 76.5854 44.6026 76.5854C48.1116 76.5854 50.9562 79.43 50.9562 82.9391C50.9562 86.4481 48.1116 89.2927 44.6026 89.2927C41.0935 89.2927 38.2489 86.4481 38.2489 82.9391Z" fill="black"/>
</svg>
