<svg width="41" height="41" viewBox="0 0 41 41" fill="none" xmlns="http://www.w3.org/2000/svg">
<path fill-rule="evenodd" clip-rule="evenodd" d="M0.625 18.2917C0.625 9.96404 0.625 5.79912 3.21317 3.21317C5.79912 0.625 9.96404 0.625 18.2917 0.625H22.7083C31.036 0.625 35.2009 0.625 37.7868 3.21317C40.375 5.79912 40.375 9.96404 40.375 18.2917V22.7083C40.375 31.036 40.375 35.2009 37.7868 37.7868C35.2009 40.375 31.036 40.375 22.7083 40.375H18.2917C9.96404 40.375 5.79912 40.375 3.21317 37.7868C0.625 35.2009 0.625 31.036 0.625 22.7083V18.2917ZM33.75 10.5625C33.75 11.441 33.401 12.2836 32.7798 12.9048C32.1586 13.526 31.316 13.875 30.4375 13.875C29.559 13.875 28.7164 13.526 28.0952 12.9048C27.474 12.2836 27.125 11.441 27.125 10.5625C27.125 9.68397 27.474 8.84142 28.0952 8.22021C28.7164 7.59899 29.559 7.25 30.4375 7.25C31.316 7.25 32.1586 7.59899 32.7798 8.22021C33.401 8.84142 33.75 9.68397 33.75 10.5625ZM24.9167 22.7083C24.9167 23.8797 24.4513 25.0031 23.6231 25.8314C22.7948 26.6597 21.6714 27.125 20.5 27.125C19.3286 27.125 18.2052 26.6597 17.3769 25.8314C16.5487 25.0031 16.0833 23.8797 16.0833 22.7083C16.0833 21.537 16.5487 20.4136 17.3769 19.5853C18.2052 18.757 19.3286 18.2917 20.5 18.2917C21.6714 18.2917 22.7948 18.757 23.6231 19.5853C24.4513 20.4136 24.9167 21.537 24.9167 22.7083ZM29.3333 22.7083C29.3333 25.0511 28.4027 27.2979 26.7461 28.9544C25.0895 30.611 22.8427 31.5417 20.5 31.5417C18.1573 31.5417 15.9105 30.611 14.2539 28.9544C12.5973 27.2979 11.6667 25.0511 11.6667 22.7083C11.6667 20.3656 12.5973 18.1188 14.2539 16.4622C15.9105 14.8057 18.1573 13.875 20.5 13.875C22.8427 13.875 25.0895 14.8057 26.7461 16.4622C28.4027 18.1188 29.3333 20.3656 29.3333 22.7083Z" fill="white"/>
</svg>
