<svg width="882" height="666" viewBox="0 0 882 666" fill="none" xmlns="http://www.w3.org/2000/svg">
<rect x="394" y="31" width="488" height="8" fill="#020202"/>
<rect x="490" y="63" width="72" height="8" fill="#020202"/>
<rect x="650" y="63" width="40" height="8" fill="#020202"/>
<rect x="746" y="63" width="104" height="8" fill="#020202"/>
<rect x="458" y="95" width="104" height="8" fill="#020202"/>
<rect x="682" y="95" width="72" height="8" fill="#020202"/>
<rect x="362" y="127" width="40" height="8" fill="#020202"/>
<rect x="426" y="127" width="136" height="8" fill="#020202"/>
<rect x="586" y="127" width="168" height="8" fill="#020202"/>
<rect x="426" y="159" width="72" height="8" fill="#020202"/>
<rect x="586" y="159" width="72" height="8" fill="#020202"/>
<rect x="714" y="159" width="72" height="8" fill="#020202"/>
<rect x="810" y="159" width="72" height="8" fill="#020202"/>
<rect x="426" y="191" width="104" height="8" fill="#020202"/>
<rect x="618" y="191" width="104" height="8" fill="#020202"/>
<rect x="746" y="191" width="104" height="8" fill="#020202"/>
<rect x="586" y="223" width="72" height="8" fill="#020202"/>
<rect x="778" y="223" width="72" height="8" fill="#020202"/>
<rect x="426" y="223" width="72" height="8" fill="#020202"/>
<rect x="362" y="255" width="40" height="8" fill="#020202"/>
<rect x="554" y="255" width="72" height="8" fill="#020202"/>
<rect x="426" y="255" width="40" height="8" fill="#020202"/>
<rect x="714" y="255" width="136" height="8" fill="#020202"/>
<rect x="394" y="287" width="104" height="8" fill="#020202"/>
<rect x="522" y="287" width="72" height="8" fill="#020202"/>
<rect x="682" y="287" width="40" height="8" fill="#020202"/>
<rect x="746" y="287" width="72" height="8" fill="#020202"/>
<rect x="394" y="319" width="72" height="8" fill="#020202"/>
<rect x="554" y="319" width="72" height="8" fill="#020202"/>
<rect x="682" y="319" width="136" height="8" fill="#020202"/>
<rect x="842" y="319" width="40" height="8" fill="#020202"/>
<rect x="426" y="351" width="104" height="8" fill="#020202"/>
<rect x="554" y="351" width="40" height="8" fill="#020202"/>
<rect x="650" y="351" width="200" height="8" fill="#020202"/>
<rect x="426" y="383" width="200" height="8" fill="#020202"/>
<rect x="650" y="383" width="104" height="8" fill="#020202"/>
<rect x="778" y="383" width="104" height="8" fill="#020202"/>
<rect x="362" y="415" width="40" height="8" fill="#020202"/>
<rect x="458" y="415" width="168" height="8" fill="#020202"/>
<rect x="682" y="415" width="104" height="8" fill="#020202"/>
<rect x="810" y="415" width="40" height="8" fill="#020202"/>
<rect x="394" y="447" width="200" height="8" fill="#020202"/>
<rect x="618" y="447" width="72" height="8" fill="#020202"/>
<rect x="714" y="447" width="136" height="8" fill="#020202"/>
<rect x="362" y="479" width="72" height="8" fill="#020202"/>
<rect x="650" y="479" width="200" height="8" fill="#020202"/>
<rect x="490" y="479" width="136" height="8" fill="#020202"/>
<rect x="394" y="511" width="40" height="8" fill="#020202"/>
<rect x="458" y="511" width="40" height="8" fill="#020202"/>
<rect x="746" y="511" width="136" height="8" fill="#020202"/>
<rect x="554" y="511" width="136" height="8" fill="#020202"/>
<rect x="362" y="543" width="488" height="8" fill="#020202"/>
<rect x="370" y="31" width="520" height="8" transform="rotate(90 370 31)" fill="#020202"/>
<rect x="402" y="31" width="64" height="8" transform="rotate(90 402 31)" fill="#020202"/>
<rect x="402" y="159" width="104" height="8" transform="rotate(90 402 159)" fill="#020202"/>
<rect x="402" y="319" width="104" height="8" transform="rotate(90 402 319)" fill="#020202"/>
<rect x="434" y="63" width="72" height="8" transform="rotate(90 434 63)" fill="#020202"/>
<rect x="434" y="223" width="40" height="8" transform="rotate(90 434 223)" fill="#020202"/>
<rect x="434" y="383" width="72" height="8" transform="rotate(90 434 383)" fill="#020202"/>
<rect x="434" y="479" width="40" height="8" transform="rotate(90 434 479)" fill="#020202"/>
<rect x="434" y="159" width="40" height="8" transform="rotate(90 434 159)" fill="#020202"/>
<rect x="466" y="31" width="72" height="8" transform="rotate(90 466 31)" fill="#020202"/>
<rect x="466" y="287" width="40" height="8" transform="rotate(90 466 287)" fill="#020202"/>
<rect x="466" y="447" width="72" height="8" transform="rotate(90 466 447)" fill="#020202"/>
<rect x="498" y="191" width="200" height="8" transform="rotate(90 498 191)" fill="#020202"/>
<rect x="498" y="511" width="40" height="8" transform="rotate(90 498 511)" fill="#020202"/>
<rect x="498" y="127" width="40" height="8" transform="rotate(90 498 127)" fill="#020202"/>
<rect x="530" y="159" width="40" height="8" transform="rotate(90 530 159)" fill="#020202"/>
<rect x="530" y="223" width="136" height="8" transform="rotate(90 530 223)" fill="#020202"/>
<rect x="530" y="415" width="40" height="8" transform="rotate(90 530 415)" fill="#020202"/>
<rect x="530" y="479" width="40" height="8" transform="rotate(90 530 479)" fill="#020202"/>
<rect x="562" y="63" width="40" height="8" transform="rotate(90 562 63)" fill="#020202"/>
<rect x="562" y="127" width="72" height="8" transform="rotate(90 562 127)" fill="#020202"/>
<rect x="562" y="223" width="40" height="8" transform="rotate(90 562 223)" fill="#020202"/>
<rect x="562" y="351" width="40" height="8" transform="rotate(90 562 351)" fill="#020202"/>
<rect x="594" y="63" width="165" height="8" transform="rotate(90 594 63)" fill="#020202"/>
<rect x="594" y="511" width="40" height="8" transform="rotate(90 594 511)" fill="#020202"/>
<rect x="626" y="31" width="72" height="8" transform="rotate(90 626 31)" fill="#020202"/>
<rect x="626" y="255" width="136" height="8" transform="rotate(90 626 255)" fill="#020202"/>
<rect x="626" y="447" width="40" height="8" transform="rotate(90 626 447)" fill="#020202"/>
<rect x="658" y="63" width="72" height="8" transform="rotate(90 658 63)" fill="#020202"/>
<rect x="658" y="223" width="136" height="8" transform="rotate(90 658 223)" fill="#020202"/>
<rect x="658" y="383" width="72" height="8" transform="rotate(90 658 383)" fill="#020202"/>
<rect x="758" y="351" width="40" height="8" transform="rotate(90 758 351)" fill="#020202"/>
<rect x="690" y="127" width="168" height="8" transform="rotate(90 690 127)" fill="#020202"/>
<rect x="722" y="228" width="67" height="8" transform="rotate(90 722 228)" fill="#020202"/>
<rect x="722" y="415" width="40" height="8" transform="rotate(90 722 415)" fill="#020202"/>
<rect x="722" y="479" width="72" height="8" transform="rotate(90 722 479)" fill="#020202"/>
<rect x="722" y="31" width="40" height="8" transform="rotate(90 722 31)" fill="#020202"/>
<rect x="754" y="63" width="72" height="8" transform="rotate(90 754 63)" fill="#020202"/>
<rect x="754" y="167" width="64" height="8" transform="rotate(90 754 167)" fill="#020202"/>
<rect x="786" y="383" width="40" height="8" transform="rotate(90 786 383)" fill="#020202"/>
<rect x="786" y="95" width="72" height="8" transform="rotate(90 786 95)" fill="#020202"/>
<rect x="818" y="95" width="104" height="8" transform="rotate(90 818 95)" fill="#020202"/>
<rect x="818" y="287" width="40" height="8" transform="rotate(90 818 287)" fill="#020202"/>
<rect x="850" y="63" width="72" height="8" transform="rotate(90 850 63)" fill="#020202"/>
<rect x="850" y="415" width="40" height="8" transform="rotate(90 850 415)" fill="#020202"/>
<rect x="850" y="223" width="104" height="8" transform="rotate(90 850 223)" fill="#020202"/>
<rect x="882" y="31" width="520" height="8" transform="rotate(90 882 31)" fill="#020202"/>
<path d="M373.195 27.3633C373.179 27.2082 373.109 27.0875 372.986 27.0011C372.864 26.9147 372.705 26.8714 372.51 26.8714C372.373 26.8714 372.255 26.8922 372.157 26.9336C372.058 26.975 371.983 27.0312 371.931 27.1023C371.879 27.1733 371.852 27.2544 371.851 27.3455C371.851 27.4213 371.868 27.487 371.903 27.5426C371.938 27.5982 371.986 27.6456 372.046 27.6847C372.107 27.7225 372.174 27.7545 372.247 27.7805C372.321 27.8066 372.395 27.8285 372.469 27.8462L372.81 27.9315C372.947 27.9634 373.079 28.0066 373.206 28.0611C373.334 28.1155 373.448 28.1842 373.549 28.267C373.65 28.3499 373.731 28.4499 373.79 28.5671C373.849 28.6843 373.879 28.8216 373.879 28.979C373.879 29.1921 373.824 29.3797 373.716 29.5419C373.607 29.7029 373.449 29.829 373.243 29.9201C373.038 30.0101 372.79 30.055 372.499 30.055C372.216 30.055 371.971 30.0112 371.762 29.9237C371.555 29.8361 371.393 29.7082 371.276 29.5401C371.16 29.372 371.097 29.1673 371.088 28.9258H371.736C371.745 29.0524 371.784 29.1578 371.853 29.2418C371.922 29.3259 372.011 29.3886 372.121 29.43C372.232 29.4715 372.357 29.4922 372.494 29.4922C372.637 29.4922 372.763 29.4709 372.87 29.4283C372.979 29.3845 373.064 29.3241 373.126 29.2472C373.188 29.169 373.219 29.0779 373.22 28.9737C373.219 28.879 373.191 28.8009 373.137 28.7393C373.082 28.6766 373.006 28.6245 372.908 28.5831C372.811 28.5405 372.697 28.5026 372.567 28.4695L372.153 28.3629C371.854 28.286 371.617 28.1694 371.443 28.0131C371.27 27.8557 371.184 27.6468 371.184 27.3864C371.184 27.1721 371.242 26.9845 371.358 26.8235C371.475 26.6625 371.634 26.5376 371.835 26.4489C372.036 26.3589 372.264 26.3139 372.519 26.3139C372.777 26.3139 373.003 26.3589 373.197 26.4489C373.392 26.5376 373.546 26.6613 373.657 26.82C373.768 26.9774 373.826 27.1585 373.829 27.3633H373.195ZM375.806 26.9158V26.3636H378.708V26.9158H377.584V30H376.93V26.9158H375.806ZM380.794 30H380.091L381.372 26.3636H382.185L383.467 30H382.764L381.792 27.1094H381.764L380.794 30ZM380.818 28.5742H382.735V29.1033H380.818V28.5742ZM385.446 30V26.3636H386.809C387.089 26.3636 387.323 26.4122 387.512 26.5092C387.703 26.6063 387.847 26.7424 387.944 26.9176C388.042 27.0916 388.091 27.2946 388.091 27.5266C388.091 27.7598 388.042 27.9622 387.942 28.1339C387.844 28.3043 387.699 28.4363 387.507 28.5298C387.315 28.6222 387.08 28.6683 386.8 28.6683H385.829V28.1214H386.712C386.875 28.1214 387.009 28.099 387.113 28.054C387.217 28.0078 387.294 27.9409 387.344 27.8533C387.395 27.7646 387.42 27.6557 387.42 27.5266C387.42 27.3976 387.395 27.2875 387.344 27.1964C387.293 27.104 387.215 27.0342 387.111 26.9869C387.007 26.9383 386.873 26.9141 386.708 26.9141H386.104V30H385.446ZM387.324 28.3523L388.224 30H387.489L386.605 28.3523H387.324ZM390.038 26.9158V26.3636H392.939V26.9158H391.815V30H391.162V26.9158H390.038Z" fill="black"/>
<rect x="850" y="551" width="2" height="2" fill="#020202"/>
<rect x="854" y="551" width="2" height="2" fill="#020202"/>
<rect x="858" y="551" width="2" height="2" fill="#020202"/>
<rect x="862" y="551" width="2" height="2" fill="#020202"/>
<rect x="866" y="551" width="2" height="2" fill="#020202"/>
<rect x="870" y="551" width="2" height="2" fill="#020202"/>
<rect x="872" y="553" width="2" height="2" fill="#020202"/>
<rect x="868" y="553" width="2" height="2" fill="#020202"/>
<rect x="864" y="553" width="2" height="2" fill="#020202"/>
<rect x="860" y="553" width="2" height="2" fill="#020202"/>
<rect x="856" y="553" width="2" height="2" fill="#020202"/>
<rect x="852" y="553" width="2" height="2" fill="#020202"/>
<rect x="850" y="555" width="2" height="2" fill="#020202"/>
<rect x="854" y="555" width="2" height="2" fill="#020202"/>
<rect x="858" y="555" width="2" height="2" fill="#020202"/>
<rect x="862" y="555" width="2" height="2" fill="#020202"/>
<rect x="866" y="555" width="2" height="2" fill="#020202"/>
<rect x="870" y="555" width="2" height="2" fill="#020202"/>
<path d="M850.435 566V562.364H852.764V562.916H851.094V563.903H852.605V564.455H851.094V566H850.435ZM855.523 562.364V566H854.865V562.364H855.523ZM860.725 562.364V566H860.139L858.426 563.523H858.395V566H857.737V562.364H858.326L860.038 564.842H860.07V562.364H860.725ZM863.601 562.364V566H862.943V562.364H863.601ZM867.791 563.363C867.774 563.208 867.705 563.087 867.581 563.001C867.46 562.915 867.301 562.871 867.106 562.871C866.968 562.871 866.851 562.892 866.752 562.934C866.654 562.975 866.579 563.031 866.527 563.102C866.475 563.173 866.448 563.254 866.447 563.346C866.447 563.421 866.464 563.487 866.498 563.543C866.534 563.598 866.582 563.646 866.642 563.685C866.703 563.723 866.769 563.754 866.843 563.781C866.916 563.807 866.99 563.828 867.065 563.846L867.406 563.931C867.543 563.963 867.675 564.007 867.802 564.061C867.929 564.116 868.044 564.184 868.144 564.267C868.246 564.35 868.327 564.45 868.386 564.567C868.445 564.684 868.475 564.822 868.475 564.979C868.475 565.192 868.42 565.38 868.311 565.542C868.202 565.703 868.045 565.829 867.839 565.92C867.634 566.01 867.386 566.055 867.095 566.055C866.812 566.055 866.566 566.011 866.358 565.924C866.151 565.836 865.989 565.708 865.872 565.54C865.756 565.372 865.693 565.167 865.683 564.926H866.331C866.341 565.052 866.38 565.158 866.449 565.242C866.517 565.326 866.607 565.389 866.717 565.43C866.828 565.471 866.952 565.492 867.09 565.492C867.233 565.492 867.358 565.471 867.466 565.428C867.575 565.384 867.66 565.324 867.722 565.247C867.783 565.169 867.815 565.078 867.816 564.974C867.815 564.879 867.787 564.801 867.732 564.739C867.678 564.677 867.602 564.625 867.503 564.583C867.406 564.54 867.293 564.503 867.162 564.469L866.749 564.363C866.449 564.286 866.213 564.169 866.039 564.013C865.866 563.856 865.779 563.647 865.779 563.386C865.779 563.172 865.837 562.984 865.953 562.824C866.07 562.663 866.23 562.538 866.431 562.449C866.632 562.359 866.86 562.314 867.114 562.314C867.373 562.314 867.599 562.359 867.793 562.449C867.988 562.538 868.141 562.661 868.253 562.82C868.364 562.977 868.421 563.158 868.425 563.363H867.791ZM870.562 566V562.364H871.221V563.903H872.906V562.364H873.566V566H872.906V564.455H871.221V566H870.562Z" fill="black"/>
<line x1="2.99195" y1="6.00007" x2="376.992" y2="4.981" stroke="#B31312" stroke-opacity="0.79" stroke-width="6"/>
<circle cx="7.00012" cy="7.00006" r="7" fill="black"/>
<path d="M376 2.00009L376 114" stroke="#B31312" stroke-opacity="0.79" stroke-width="6"/>
<line x1="211" y1="585.002" x2="863" y2="585.003" stroke="#B31312" stroke-opacity="0.79" stroke-width="6"/>
<line x1="214" y1="585.002" x2="214" y2="661.002" stroke="#B31312" stroke-opacity="0.79" stroke-width="6"/>
<line x1="865" y1="588.002" x2="865" y2="547.002" stroke="#B31312" stroke-opacity="0.79" stroke-width="6"/>
<line x1="377" y1="111" x2="411" y2="111" stroke="#B31312" stroke-opacity="0.79" stroke-width="6"/>
<line x1="409" y1="114" x2="409" y2="51.0001" stroke="#B31312" stroke-opacity="0.79" stroke-width="6"/>
<line x1="411" y1="54.0001" x2="443" y2="54.0001" stroke="#B31312" stroke-opacity="0.79" stroke-width="6"/>
<line x1="445" y1="51.0001" x2="445" y2="114" stroke="#B31312" stroke-opacity="0.79" stroke-width="6"/>
<line x1="442" y1="111" x2="572" y2="111" stroke="#B31312" stroke-opacity="0.79" stroke-width="6"/>
<path d="M575 108V238" stroke="#B31312" stroke-opacity="0.79" stroke-width="6"/>
<path d="M573 235.002H644" stroke="#B31312" stroke-opacity="0.79" stroke-width="6"/>
<line x1="641" y1="238.002" x2="641" y2="435.002" stroke="#B31312" stroke-opacity="0.79" stroke-width="6"/>
<line x1="644" y1="437.003" x2="611" y2="437.003" stroke="#B31312" stroke-opacity="0.79" stroke-width="6"/>
<line x1="608" y1="434.003" x2="608" y2="467.003" stroke="#B31312" stroke-opacity="0.79" stroke-width="6"/>
<line x1="611" y1="470.003" x2="483" y2="470.003" stroke="#B31312" stroke-opacity="0.79" stroke-width="6"/>
<line x1="481" y1="467.002" x2="481" y2="504.003" stroke="#B31312" stroke-opacity="0.79" stroke-width="6"/>
<line x1="484" y1="501.002" x2="514" y2="501.003" stroke="#B31312" stroke-opacity="0.79" stroke-width="6"/>
<path d="M511 503.002L511 532.002" stroke="#B31312" stroke-opacity="0.79" stroke-width="6"/>
<line x1="509" y1="529.002" x2="545" y2="529.002" stroke="#B31312" stroke-opacity="0.79" stroke-width="6"/>
<path d="M543 532.003L543 499.003" stroke="#B31312" stroke-opacity="0.79" stroke-width="6"/>
<path d="M540 497.002H634" stroke="#B31312" stroke-opacity="0.79" stroke-width="6"/>
<line x1="632" y1="500.002" x2="632" y2="464.002" stroke="#B31312" stroke-opacity="0.79" stroke-width="6"/>
<path d="M629 462.003H867" stroke="#B31312" stroke-opacity="0.79" stroke-width="6"/>
<path d="M864 465.002L864 504.002" stroke="#B31312" stroke-opacity="0.79" stroke-width="6"/>
<line x1="862" y1="501.002" x2="736" y2="501.002" stroke="#B31312" stroke-opacity="0.79" stroke-width="6"/>
<line x1="739" y1="499.002" x2="739" y2="534.002" stroke="#B31312" stroke-opacity="0.79" stroke-width="6"/>
<path d="M736 532.002H868" stroke="#B31312" stroke-opacity="0.79" stroke-width="6"/>
<path d="M865 534.002L865 547.002" stroke="#B31312" stroke-opacity="0.79" stroke-width="6"/>
<circle cx="214" cy="661" r="5" fill="black"/>
</svg>
