<svg width="54" height="53" viewBox="0 0 54 53" fill="none" xmlns="http://www.w3.org/2000/svg">
<path d="M22 35.0833L33.6775 28.4583L22 21.8333V35.0833ZM48.01 17.7921C48.3025 18.83 48.505 20.2212 48.64 21.9879C48.7975 23.7546 48.865 25.2783 48.865 26.6033L49 28.4583C49 33.2946 48.64 36.85 48.01 39.1246C47.4475 41.1121 46.1425 42.3929 44.1175 42.945C43.06 43.2321 41.125 43.4308 38.155 43.5633C35.23 43.7179 32.5525 43.7842 30.0775 43.7842L26.5 43.9167C17.0725 43.9167 11.2 43.5633 8.8825 42.945C6.8575 42.3929 5.5525 41.1121 4.99 39.1246C4.6975 38.0867 4.495 36.6954 4.36 34.9287C4.2025 33.1621 4.135 31.6383 4.135 30.3133L4 28.4583C4 23.6221 4.36 20.0667 4.99 17.7921C5.5525 15.8046 6.8575 14.5238 8.8825 13.9717C9.94 13.6846 11.875 13.4858 14.845 13.3533C17.77 13.1987 20.4475 13.1325 22.9225 13.1325L26.5 13C35.9275 13 41.8 13.3533 44.1175 13.9717C46.1425 14.5238 47.4475 15.8046 48.01 17.7921Z" fill="white"/>
</svg>
